<svg xmlns="http://www.w3.org/2000/svg" viewBox="0 0 85.14 94.55"><defs><style>.cls-1{fill:#7ac943;}</style></defs><g id="Layer_2" data-name="Layer 2"><g id="Layer_1-2" data-name="Layer 1"><rect class="cls-1" x="1.53" y="78.56" width="82.07" height="15.99" rx="3.88"/><path class="cls-1" d="M67.17,38.82l6.08-4.74,3.67,4.7,8.22-20.34-21.72,3,3.67,4.7-5,3.89L47.39,4.57a9.13,9.13,0,0,0-15.82,0L18.82,26.65,8.65,44.27,1.24,57.1A9.14,9.14,0,0,0,9.15,70.81H69.82A9.14,9.14,0,0,0,77.73,57.1ZM37.28,14.32a2.54,2.54,0,0,1,4.41,0L54.31,36.18l-12.75,10-13-16.65ZM64.46,61.39H14.51a2.54,2.54,0,0,1-2.2-3.82L23.13,38.82,36.76,56.24a5,5,0,0,0,7,.86L59.36,44.93l7.29,12.64A2.54,2.54,0,0,1,64.46,61.39Z"/></g></g></svg>